<svg id="logoINE" width="326" height="125" version="1.1" xml:space="preserve" xmlns="http://www.w3.org/2000/svg"><path d="m3.0784 124.66v-16.419h-1.472v16.419zm5.7609-6.5449c0-2.0382 1.0191-3.9179 3.2611-3.9179 1.857 0 2.9894 1.155 2.9894 3.1252v7.3375h1.3588v-7.111c0-1.3135-0.29441-4.5973-4.0084-4.5973-1.472 0-2.7629 0.65675-3.5555 2.0608l-0.045293-0.0453-0.06794-1.6758h-1.4041c0.045293 0.76998 0.11323 1.6758 0.11323 2.5591v8.8095h1.3588zm11.038-1.9929c0 2.1061 1.8117 2.627 3.6008 3.0573 1.8117 0.40764 3.6008 0.6794 3.6008 2.31 0 1.5853-1.5173 2.2647-2.9667 2.2647-1.54 0-3.0346-0.49823-3.1479-2.1967h-1.472c0.04529 2.5138 2.31 3.4423 4.2802 3.4423 2.4005 0 4.7784-1.155 4.7784-3.714 0-1.2229-0.74734-2.242-1.925-2.6496-3.0799-1.087-5.2767-0.92852-5.2767-2.6044 0-1.3362 1.2909-1.8344 2.5591-1.8344 1.4041 0 2.6723 0.47558 2.8082 1.9023h1.472c-0.18117-2.4005-1.9929-3.1479-4.1443-3.1479-1.9929 0-4.167 0.81528-4.167 3.1705zm12.872 5.5031c0 1.54-0.15853 3.3743 2.7176 3.3743 0.45293 0 0.95116-0.0906 1.3814-0.20382v-1.1776c-0.36234 0.11323-0.76998 0.13588-1.1776 0.13588-1.0417 0-1.5853-0.56617-1.5626-1.6079v-7.6093h2.5817v-1.2456h-2.5817v-3.012l-1.3588 0.58881v2.4232h-2.2647v1.2456h2.2647zm6.78-8.334v11.369h1.3588v-11.369zm1.472-4.9822h-1.5853v1.6985h1.5853zm4.6965 13.316c0 1.54-0.15853 3.3743 2.7176 3.3743 0.45293 0 0.95116-0.0906 1.3814-0.20382v-1.1776c-0.36234 0.11323-0.76998 0.13588-1.1776 0.13588-1.0417 0-1.5853-0.56617-1.5626-1.6079v-7.6093h2.5817v-1.2456h-2.5817v-3.012l-1.3588 0.58881v2.4232h-2.2647v1.2456h2.2647zm13.8-1.7891c0 2.0382-1.0191 3.9179-3.2611 3.9179-1.857 0-2.9894-1.155-2.9894-3.1252v-7.3375h-1.3588v7.111c0 1.3135 0.29441 4.5973 4.0084 4.5973 1.472 0 2.7629-0.65675 3.5555-2.0608l0.04529 0.0453 0.06794 1.6758h1.4041c-0.04529-0.76998-0.11323-1.6758-0.11323-2.5591v-8.8095h-1.3588zm6.1459 1.7891c0 1.54-0.15853 3.3743 2.7176 3.3743 0.45293 0 0.95116-0.0906 1.3814-0.20382v-1.1776c-0.36234 0.11323-0.76998 0.13588-1.1776 0.13588-1.0417 0-1.5853-0.56617-1.5626-1.6079v-7.6093h2.5817v-1.2456h-2.5817v-3.012l-1.3588 0.58881v2.4232h-2.2647v1.2456h2.2647zm15.069-2.6497c0 2.1061-1.087 4.7784-3.8273 4.7784s-3.8273-2.6723-3.8273-4.7784c0-2.1061 1.087-4.7784 3.8273-4.7784s3.8273 2.6723 3.8273 4.7784zm-3.8273-6.024c-3.6235 0-5.2993 3.0346-5.2993 6.024 0 2.9894 1.6758 6.024 5.2993 6.024s5.2993-3.0346 5.2993-6.024c0-2.9894-1.6758-6.024-5.2993-6.024zm15.055 11.708h1.472v-14.131h0.04529l8.8322 14.131h1.857v-16.351h-1.472v14.381h-0.0453l-9.0133-14.381h-1.6758zm16.745-3.1705c0-2.8535 4.0311-2.4911 5.956-2.5591 0.13588 2.3779-0.43028 4.8237-3.397 4.8237-1.3814 0-2.5591-0.72469-2.5591-2.2647zm5.956-3.8046c-1.6532 0.0906-3.6234-0.13588-5.1408 0.52087-1.3588 0.56617-2.2873 1.7438-2.2873 3.2838 0 2.2194 1.6758 3.5102 3.782 3.5102 1.54 0 3.0573-0.90586 3.5555-1.857l0.0679-0.15853h0.0453l0.0453 1.6758h1.4041c-0.0453-0.76998-0.13588-1.6758-0.11323-2.5591v-5.3899c0.0453-2.6044-1.5173-3.7593-4.0311-3.7593-2.1741 0-3.9179 0.88322-4.2576 3.2158h1.4494c0.18118-1.54 1.3588-1.9703 2.7855-1.9703 1.6079 0 2.5591 0.58881 2.6949 2.4458zm13.732-0.90587c-0.11323-2.4232-2.0156-3.8273-4.3482-3.8273-3.3743 0-5.0728 2.9441-5.0728 6.024 0 3.1026 1.5853 6.024 4.9822 6.024 2.5817 0 4.0764-1.2909 4.4387-3.8952h-1.472c-0.11323 1.5626-1.3362 2.6497-3.1026 2.6497-2.0835 0-3.3744-2.1967-3.3744-4.8011 0-2.5817 1.2909-4.7558 3.3744-4.7558 1.8797 0 2.9894 0.83793 3.1026 2.5817zm2.8848-3.4876v11.369h1.3588v-11.369zm1.472-4.9822h-1.5853v1.6985h1.5853zm12.034 10.667c0 2.1061-1.087 4.7784-3.8273 4.7784s-3.8273-2.6723-3.8273-4.7784c0-2.1061 1.087-4.7784 3.8273-4.7784s3.8273 2.6723 3.8273 4.7784zm-3.8273-6.024c-3.6235 0-5.2993 3.0346-5.2993 6.024 0 2.9894 1.6758 6.024 5.2993 6.024 3.6234 0 5.2993-3.0346 5.2993-6.024 0-2.9894-1.6758-6.024-5.2993-6.024zm9.6561 5.1634c0-2.0382 1.0191-3.9179 3.2611-3.9179 1.857 0 2.9894 1.155 2.9894 3.1252v7.3375h1.3588v-7.111c0-1.3135-0.29441-4.5973-4.0084-4.5973-1.472 0-2.7629 0.65675-3.5555 2.0608l-0.0453-0.0453-0.0679-1.6758h-1.4041c0.0453 0.76998 0.11323 1.6758 0.11323 2.5591v8.8095h1.3588zm11.898 3.3744c0-2.8535 4.0311-2.4911 5.956-2.5591 0.13588 2.3779-0.43028 4.8237-3.397 4.8237-1.3814 0-2.5591-0.72469-2.5591-2.2647zm5.956-3.8046c-1.6532 0.0906-3.6234-0.13588-5.1408 0.52087-1.3588 0.56617-2.2873 1.7438-2.2873 3.2838 0 2.2194 1.6758 3.5102 3.782 3.5102 1.54 0 3.0573-0.90586 3.5555-1.857l0.0679-0.15853h0.0453l0.0453 1.6758h1.4041c-0.0453-0.76998-0.13588-1.6758-0.11323-2.5591v-5.3899c0.0453-2.6044-1.5173-3.7593-4.0311-3.7593-2.1741 0-3.9179 0.88322-4.2576 3.2158h1.4494c0.18117-1.54 1.3588-1.9703 2.7855-1.9703 1.6079 0 2.5591 0.58881 2.6949 2.4458zm6.463-9.3757h-1.3588v16.351h1.3588zm18.112 10.395c0 2.5817-0.90587 5.0502-3.8726 5.0502-2.6044 0-3.2158-2.8761-3.2158-4.9822 0-2.1741 0.83792-4.5746 3.4196-4.5746 2.6496 0 3.6688 2.1967 3.6688 4.5067zm0.11323 5.956h1.4041c-0.0453-0.76998-0.11324-1.6758-0.11324-2.5591v-13.792h-1.3588v6.6581l-0.0453 0.0453c-0.79264-1.3362-2.3779-2.0608-3.8952-2.0608-3.3743 0-4.6652 3.0346-4.6652 5.9787 0 2.8535 1.2909 6.0693 4.6652 6.0693 1.5853 0 2.9667-0.74734 3.8952-2.1061l0.0453 0.0906zm14.457-5.3672c0-3.5555-1.3814-6.341-5.1861-6.341-3.3744 0-5.0728 2.9441-5.0728 6.024 0 3.1026 1.5853 6.024 4.9822 6.024 2.7402 0 4.4387-1.2456 5.1408-3.9632h-1.4267c-0.3397 1.5626-1.6758 2.7176-3.2838 2.7176-2.7855 0-3.8952-2.0382-3.9405-4.4614zm-8.7416-1.2456c0.18117-1.9929 1.3588-3.8499 3.5782-3.8499 2.3552 0 3.5329 1.6532 3.6914 3.8499zm28.982 6.6128v-1.3588h-8.5831v-6.409h7.9263v-1.3588h-7.9263v-5.8655h8.2434v-1.3588h-9.7154v16.351zm3.0886-8.5378c0 2.1061 1.8117 2.627 3.6008 3.0573 1.8117 0.40764 3.6008 0.6794 3.6008 2.31 0 1.5853-1.5173 2.2647-2.9667 2.2647-1.54 0-3.0346-0.49823-3.1479-2.1967h-1.472c0.0453 2.5138 2.31 3.4423 4.2802 3.4423 2.4005 0 4.7784-1.155 4.7784-3.714 0-1.2229-0.74734-2.242-1.925-2.6496-3.0799-1.087-5.2766-0.92852-5.2766-2.6044 0-1.3362 1.2908-1.8344 2.5591-1.8344 1.4041 0 2.6723 0.47558 2.8082 1.9023h1.472c-0.18117-2.4005-1.9929-3.1479-4.1443-3.1479-1.9929 0-4.167 0.81528-4.167 3.1705zm12.872 5.5031c0 1.54-0.15853 3.3743 2.7176 3.3743 0.45294 0 0.95116-0.0906 1.3814-0.20382v-1.1776c-0.36235 0.11323-0.76999 0.13588-1.1776 0.13588-1.0417 0-1.5853-0.56617-1.5626-1.6079v-7.6093h2.5817v-1.2456h-2.5817v-3.012l-1.3588 0.58881v2.4232h-2.2647v1.2456h2.2647zm7.6859-0.13588c0-2.8535 4.0311-2.4911 5.9561-2.5591 0.13588 2.3779-0.43029 4.8237-3.397 4.8237-1.3814 0-2.5591-0.72469-2.5591-2.2647zm5.9561-3.8046c-1.6532 0.0906-3.6235-0.13588-5.1408 0.52087-1.3588 0.56617-2.2873 1.7438-2.2873 3.2838 0 2.2194 1.6758 3.5102 3.782 3.5102 1.54 0 3.0573-0.90586 3.5555-1.857l0.0679-0.15853h0.0453l0.0453 1.6758h1.4041c-0.0453-0.76998-0.13588-1.6758-0.11323-2.5591v-5.3899c0.0453-2.6044-1.5173-3.7593-4.0311-3.7593-2.1741 0-3.9179 0.88322-4.2576 3.2158h1.4494c0.18117-1.54 1.3588-1.9703 2.7855-1.9703 1.6079 0 2.5591 0.58881 2.695 2.4458zm12.872 1.0191c0 2.5817-0.90587 5.0502-3.8726 5.0502-2.6044 0-3.2158-2.8761-3.2158-4.9822 0-2.1741 0.83793-4.5746 3.4196-4.5746 2.6496 0 3.6688 2.1967 3.6688 4.5067zm0.11323 5.956h1.4041c-0.0453-0.76998-0.11323-1.6758-0.11323-2.5591v-13.792h-1.3588v6.6581l-0.0453 0.0453c-0.79263-1.3362-2.3779-2.0608-3.8952-2.0608-3.3743 0-4.6652 3.0346-4.6652 5.9787 0 2.8535 1.2909 6.0693 4.6652 6.0693 1.5853 0 2.9667-0.74734 3.8952-2.1061l0.0453 0.0906zm6.2591 0v-11.369h-1.3588v11.369zm0.20382-16.011-2.0608 3.2385h0.99645l2.8761-3.2385zm3.2471 7.4734c0 2.1061 1.8117 2.627 3.6008 3.0573 1.8117 0.40764 3.6008 0.6794 3.6008 2.31 0 1.5853-1.5173 2.2647-2.9667 2.2647-1.54 0-3.0346-0.49823-3.1479-2.1967h-1.472c0.0453 2.5138 2.31 3.4423 4.2802 3.4423 2.4005 0 4.7784-1.155 4.7784-3.714 0-1.2229-0.74734-2.242-1.925-2.6496-3.0799-1.087-5.2767-0.92852-5.2767-2.6044 0-1.3362 1.2909-1.8344 2.5591-1.8344 1.4041 0 2.6723 0.47558 2.8082 1.9023h1.472c-0.18118-2.4005-1.9929-3.1479-4.1443-3.1479-1.9929 0-4.167 0.81528-4.167 3.1705zm12.872 5.5031c0 1.54-0.15852 3.3743 2.7176 3.3743 0.45294 0 0.95116-0.0906 1.3814-0.20382v-1.1776c-0.36235 0.11323-0.76999 0.13588-1.1776 0.13588-1.0417 0-1.5853-0.56617-1.5626-1.6079v-7.6093h2.5817v-1.2456h-2.5817v-3.012l-1.3588 0.58881v2.4232h-2.2647v1.2456h2.2647zm6.78-8.334v11.369h1.3588v-11.369zm1.472-4.9822h-1.5853v1.6985h1.5853zm12.374 8.4698c-0.11324-2.4232-2.0156-3.8273-4.3482-3.8273-3.3743 0-5.0728 2.9441-5.0728 6.024 0 3.1026 1.5853 6.024 4.9822 6.024 2.5817 0 4.0764-1.2909 4.4387-3.8952h-1.472c-0.11324 1.5626-1.3362 2.6497-3.1026 2.6497-2.0835 0-3.3743-2.1967-3.3743-4.8011 0-2.5817 1.2909-4.7558 3.3743-4.7558 1.8797 0 2.9894 0.83793 3.1026 2.5817zm3.3377 4.7105c0-2.8535 4.0311-2.4911 5.956-2.5591 0.13588 2.3779-0.43028 4.8237-3.397 4.8237-1.3814 0-2.5591-0.72469-2.5591-2.2647zm5.956-3.8046c-1.6532 0.0906-3.6234-0.13588-5.1408 0.52087-1.3588 0.56617-2.2873 1.7438-2.2873 3.2838 0 2.2194 1.6758 3.5102 3.782 3.5102 1.54 0 3.0573-0.90586 3.5555-1.857l0.0679-0.15853h0.0453l0.0453 1.6758h1.4041c-0.0453-0.76998-0.13588-1.6758-0.11323-2.5591v-5.3899c0.0453-2.6044-1.5173-3.7593-4.0311-3.7593-2.1741 0-3.9179 0.88322-4.2576 3.2158h1.4494c0.18118-1.54 1.3588-1.9703 2.7855-1.9703 1.6079 0 2.5591 0.58881 2.6949 2.4458z"/><path d="m16.121 91.962v-73.61h-16.121v73.61zm13.754 0.01754h15.513v-53.536l41.977 53.536h17.946v-73.611h-14.905v54.447l-42.585-54.447h-17.947v73.611zm155.31-84.428v-7.5516h-70.742v7.5516zm-52.66 41.332h35.571s1.5897-28.217-16.891-28.417c-19.872-0.19829-18.68 28.417-18.68 28.417zm22.059 45.308s16.493 2.1854 28.813-17.288l-3.9748-2.9811s-8.5447 14.506-22.653 14.506c-13.911 0-24.245-10.731-24.245-34.179h51.866s1.5897-21.262-13.911-32.39c-14.506-10.333-30.601-5.9613-38.153-0.39798 0 0-17.089 12.321-17.089 31.993 0 19.672 13.911 40.737 39.347 40.737z" clip-rule="evenodd" fill="#a5003a" fill-rule="evenodd" image-rendering="optimizeQuality" shape-rendering="geometricPrecision" stroke-width="4.2758"/></svg>
